<svg width="40" height="40" viewBox="0 0 40 40" fill="none" xmlns="http://www.w3.org/2000/svg">
<path id="Vector" d="M24.6875 32.1748C26.5523 32.1748 28.3407 31.434 29.6593 30.1154C30.9779 28.7968 31.7187 27.0084 31.7187 25.1436C31.7188 24.9984 31.6785 24.8561 31.6023 24.7326C31.526 24.6091 31.4169 24.5093 31.2871 24.4443M24.6875 32.1748L15.7249 8.85409C15.8488 8.93071 15.9488 9.04044 16.0136 9.1709L19.1386 15.4209M24.6875 32.1748V31.6748C24.6876 31.6748 24.6878 31.6748 24.688 31.6748M24.6875 32.1748L24.688 31.6748M31.2871 24.4443L25.0371 21.3193M31.2871 24.4443L31.0633 24.8915M31.2871 24.4443L31.0635 24.8916M25.0371 21.3193C24.9141 21.258 24.7771 21.2303 24.6399 21.2388C24.5027 21.2474 24.3702 21.292 24.2558 21.3682M25.0371 21.3193L24.8141 21.7668M25.0371 21.3193L24.8135 21.7666L24.8141 21.7668M24.2558 21.3682L21.0058 23.5361C19.2193 22.6794 17.7786 21.2387 16.9218 19.4521L19.0898 16.2021M24.2558 21.3682L24.5333 21.7841M24.2558 21.3682L24.5328 21.7844M19.0898 16.2021C19.1659 16.0877 19.2106 15.9552 19.2191 15.8181C19.2277 15.6809 19.1999 15.5439 19.1386 15.4209M19.0898 16.2021L18.6739 15.9247L18.6738 15.9248C18.701 15.8837 18.717 15.8361 18.7201 15.7869C18.7232 15.7377 18.7133 15.6886 18.6914 15.6444M19.0898 16.2021L18.6735 15.9252L16.5059 19.1747L16.3479 19.4116L16.471 19.6684C17.377 21.5575 18.9005 23.081 20.7896 23.987L21.0464 24.1101L21.2833 23.9521L24.5328 21.7844M19.1386 15.4209L18.6914 15.6445L18.6914 15.6444M19.1386 15.4209L18.6911 15.6439L15.5664 9.39451L15.5659 9.3934C15.5425 9.34643 15.5065 9.30693 15.4619 9.27935C15.4173 9.25176 15.3659 9.2372 15.3135 9.2373L15.3125 9.23731C13.5803 9.2373 11.919 9.92542 10.6942 11.1503C9.46946 12.375 8.78136 14.036 8.78122 15.768M18.6914 15.6444L8.78122 15.768M18.6914 15.6444L24.5333 21.7841M8.78122 15.768L8.28122 15.7686H8.78122C8.78122 15.7684 8.78122 15.7682 8.78122 15.768ZM24.5328 21.7844C24.533 21.7843 24.5331 21.7842 24.5333 21.7841M24.5328 21.7844L31.0633 24.8915M24.5333 21.7841C24.5744 21.7569 24.6219 21.7409 24.6711 21.7379C24.7205 21.7348 24.7698 21.7448 24.8141 21.7668M24.8141 21.7668L31.0633 24.8915M31.0633 24.8915L31.0635 24.8916M31.0635 24.8916C31.1101 24.9149 31.1494 24.9508 31.1768 24.9953C31.2042 25.0397 31.2188 25.091 31.2187 25.1432V25.1436C31.2187 26.8757 30.5306 28.537 29.3058 29.7618C28.081 30.9866 26.42 31.6747 24.688 31.6748M31.0635 24.8916L24.688 31.6748M0.591765 36.8994L1.06609 37.0576L3.39031 30.0869L3.45982 29.8784L3.35324 29.6862C1.74635 26.7888 0.923709 23.5221 0.96669 20.2092C1.00967 16.8963 1.91679 13.652 3.5983 10.7972C5.27982 7.94247 7.67748 5.57615 10.5541 3.93234C13.4307 2.28855 16.6866 1.4242 19.9998 1.4248L0.591765 36.8994ZM0.591765 36.8994L1.06608 37.0576C0.957746 37.3825 0.942024 37.7311 1.02068 38.0644C1.09934 38.3977 1.26926 38.7025 1.51141 38.9446C1.75356 39.1868 2.05836 39.3567 2.39166 39.4353C2.72495 39.514 3.07357 39.4983 3.39843 39.3899L3.55661 39.8643M0.591765 36.8994L3.55661 39.8643M3.55661 39.8643L3.39846 39.3899L10.3692 37.0657L10.5775 36.9962L10.7696 37.1027C13.3104 38.5105 16.1397 39.3181 19.0408 39.4634C21.9419 39.6088 24.8378 39.0882 27.5066 37.9415C30.1754 36.7948 32.5463 35.0523 34.4376 32.8477C36.329 30.6431 37.6905 28.0348 38.4181 25.2227C39.1456 22.4105 39.2198 19.4691 38.6349 16.6239C38.05 13.7787 36.8215 11.1051 35.0437 8.80795C33.2658 6.51084 30.9858 4.65116 28.3781 3.37141C25.7705 2.09166 22.9046 1.42579 19.9999 1.42481L3.55661 39.8643ZM2.05495 37.8202C2.02162 37.6789 2.02828 37.5312 2.07419 37.3936L4.50778 30.0928C4.54288 29.9878 4.55529 29.8766 4.54418 29.7665C4.53307 29.6564 4.49869 29.5499 4.44333 29.4541M2.05495 37.8202L1.56831 37.935C1.51366 37.7034 1.52458 37.4612 1.59985 37.2354L2.07393 37.3935L1.59987 37.2354L4.03344 29.9347L4.0336 29.9342C4.04624 29.8964 4.05071 29.8564 4.04671 29.8167C4.04271 29.7771 4.03033 29.7387 4.0104 29.7043M2.05495 37.8202C2.08828 37.9614 2.16028 38.0905 2.26288 38.1931C2.36549 38.2957 2.49464 38.3677 2.63587 38.4011C2.7771 38.4344 2.92481 38.4277 3.06247 38.3818M2.05495 37.8202L1.56832 37.935C1.62297 38.1666 1.74106 38.3784 1.90933 38.5467C2.0776 38.715 2.28942 38.833 2.52103 38.8877C2.75262 38.9424 2.99485 38.9314 3.22058 38.8562L3.06247 38.3818M4.0104 29.7043C4.01045 29.7043 4.01049 29.7044 4.01053 29.7045L4.44333 29.4541M4.0104 29.7043L4.44333 29.4541M4.0104 29.7043C1.97432 26.1847 1.15663 22.0916 1.68417 18.0599C2.21172 14.0281 4.05508 10.2831 6.92827 7.40586C9.80145 4.52863 13.5439 2.68001 17.5749 2.14679C21.606 1.61357 25.7003 2.42556 29.2228 4.45678C32.7452 6.48801 35.4989 9.62492 37.0566 13.3809C38.6143 17.1368 38.889 21.3019 37.8379 25.2299C36.7869 29.1578 34.469 32.6292 31.2437 35.1053C28.0185 37.5815 24.0663 38.9241 20.0001 38.9248L4.44333 29.4541M3.06247 38.3818L10.3632 35.9482M3.06247 38.3818L3.22065 38.8562L10.5214 36.4226L10.5245 36.4215C10.552 36.4121 10.5809 36.4073 10.61 36.4072M10.3632 35.9482L20.0001 38.9248C16.7529 38.9258 13.5629 38.0706 10.7517 36.4456M10.3632 35.9482C10.4431 35.921 10.5269 35.9072 10.6113 35.9072M10.3632 35.9482L11.0019 36.0127M10.61 36.4072C10.6597 36.4077 10.7085 36.4209 10.7517 36.4456M10.61 36.4072C10.6103 36.4072 10.6107 36.4072 10.611 36.4072L10.6113 35.9072M10.61 36.4072C10.6096 36.4072 10.6092 36.4072 10.6088 36.4072L10.6113 35.9072M10.7517 36.4456C10.7519 36.4457 10.7522 36.4459 10.7525 36.446L11.0019 36.0127M10.7517 36.4456L11.0019 36.0127M11.0019 36.0127C10.8831 35.9443 10.7484 35.9079 10.6113 35.9072M24.6869 31.1123H24.6872C26.1811 31.1131 27.621 30.5537 28.7225 29.5446C29.8241 28.5354 30.5071 27.1498 30.6368 25.6616L30.6663 25.3229L30.3622 25.1709L24.9696 22.4756L24.7104 22.3461L24.4692 22.5065L21.2387 24.655L21.2374 24.6558C21.1989 24.6816 21.1546 24.6975 21.1085 24.702C21.0627 24.7065 21.0164 24.6997 20.9738 24.6821C18.628 23.695 16.7618 21.829 15.7744 19.4834C15.7573 19.441 15.7507 19.3952 15.7554 19.3497L15.2579 19.2993L15.7554 19.3497C15.76 19.3037 15.7759 19.2596 15.8017 19.2212L15.803 19.2193L17.9515 15.9888L18.1119 15.7475L17.9824 15.4884L15.2871 10.0958L15.1351 9.79184L14.7966 9.82121C13.3083 9.95032 11.9225 10.6328 10.913 11.734C9.90341 12.8351 9.34346 14.2748 9.34372 15.7686V15.7691C9.34799 19.837 10.9659 23.7372 13.8424 26.6137C16.7189 29.4901 20.619 31.108 24.6869 31.1123Z" fill="#555555" stroke="#555555"/>
</svg>
