<svg width="42" height="43" viewBox="0 0 42 43" fill="none" xmlns="http://www.w3.org/2000/svg">
<path id="Vector" d="M21 29.4561V13.4561M13 25.4561V17.4561M29 25.4561V17.4561M31 4.13208C27.961 2.37388 24.511 1.45067 21 1.45608C9.954 1.45608 1 10.4101 1 21.4561C1 24.6561 1.752 27.6801 3.086 30.3621C3.442 31.0741 3.56 31.8881 3.354 32.6581L2.164 37.1101C2.04658 37.5505 2.04702 38.0141 2.16528 38.4543C2.28354 38.8946 2.51546 39.296 2.83778 39.6183C3.16011 39.9406 3.56151 40.1725 4.00174 40.2908C4.44196 40.4091 4.90555 40.4095 5.346 40.2921L9.798 39.1021C10.5708 38.9076 11.3881 39.0022 12.096 39.3681C14.8618 40.7453 17.9102 41.4602 21 41.4561C32.046 41.4561 41 32.5021 41 21.4561C41 17.8141 40.026 14.3961 38.324 11.4561" stroke="#555555" stroke-width="1.5" stroke-linecap="round"/>
</svg>
