<svg width="50" height="51" viewBox="0 0 50 51" fill="none" xmlns="http://www.w3.org/2000/svg">
<path id="Vector" d="M25 14.0055C22.7179 14.0055 20.4871 14.6822 18.5896 15.9501C16.6921 17.2179 15.2132 19.02 14.3399 21.1284C13.4665 23.2367 13.238 25.5567 13.6832 27.795C14.1285 30.0332 15.2274 32.0892 16.8411 33.7029C18.4548 35.3166 20.5107 36.4155 22.749 36.8607C24.9872 37.3059 27.3072 37.0774 29.4156 36.2041C31.524 35.3308 33.326 33.8519 34.5939 31.9544C35.8617 30.0569 36.5385 27.826 36.5385 25.5439C36.5353 22.4847 35.3186 19.5517 33.1554 17.3885C30.9922 15.2253 28.0592 14.0087 25 14.0055ZM25 33.2363C23.4786 33.2363 21.9914 32.7851 20.7264 31.9399C19.4614 31.0946 18.4754 29.8932 17.8932 28.4877C17.311 27.0821 17.1587 25.5354 17.4555 24.0432C17.7523 22.5511 18.4849 21.1805 19.5607 20.1047C20.6365 19.0289 22.0071 18.2963 23.4993 17.9994C24.9915 17.7026 26.5381 17.855 27.9437 18.4372C29.3493 19.0194 30.5507 20.0053 31.3959 21.2703C32.2412 22.5353 32.6923 24.0226 32.6923 25.5439C32.6923 27.5841 31.8819 29.5406 30.4393 30.9832C28.9967 32.4258 27.0401 33.2363 25 33.2363ZM36.5385 0.543945H13.4615C9.89249 0.547763 6.47071 1.96725 3.94701 4.49096C1.42331 7.01466 0.00381785 10.4364 0 14.0055V37.0824C0.00381785 40.6515 1.42331 44.0732 3.94701 46.5969C6.47071 49.1206 9.89249 50.5401 13.4615 50.5439H36.5385C40.1075 50.5401 43.5293 49.1206 46.053 46.5969C48.5767 44.0732 49.9962 40.6515 50 37.0824V14.0055C49.9962 10.4364 48.5767 7.01466 46.053 4.49096C43.5293 1.96725 40.1075 0.547763 36.5385 0.543945ZM46.1538 37.0824C46.1538 39.6326 45.1408 42.0783 43.3376 43.8815C41.5343 45.6847 39.0886 46.6978 36.5385 46.6978H13.4615C10.9114 46.6978 8.46567 45.6847 6.66243 43.8815C4.8592 42.0783 3.84615 39.6326 3.84615 37.0824V14.0055C3.84615 11.4553 4.8592 9.00961 6.66243 7.20638C8.46567 5.40315 10.9114 4.3901 13.4615 4.3901H36.5385C39.0886 4.3901 41.5343 5.40315 43.3376 7.20638C45.1408 9.00961 46.1538 11.4553 46.1538 14.0055V37.0824ZM40.3846 13.0439C40.3846 13.6145 40.2154 14.1722 39.8985 14.6466C39.5815 15.1209 39.131 15.4907 38.6039 15.709C38.0768 15.9273 37.4968 15.9844 36.9372 15.8731C36.3777 15.7618 35.8637 15.4871 35.4603 15.0837C35.0569 14.6803 34.7821 14.1663 34.6708 13.6067C34.5595 13.0471 34.6166 12.4671 34.835 11.9401C35.0533 11.413 35.423 10.9624 35.8974 10.6455C36.3718 10.3285 36.9295 10.1593 37.5 10.1593C38.265 10.1593 38.9988 10.4632 39.5397 11.0042C40.0807 11.5452 40.3846 12.2789 40.3846 13.0439Z" fill="#FFF9FD"/>
</svg>
