<svg width="50" height="51" viewBox="0 0 50 51" fill="none" xmlns="http://www.w3.org/2000/svg">
<path id="Vector" d="M44.4444 0.543945C45.9179 0.543945 47.3309 1.12926 48.3728 2.17113C49.4147 3.213 50 4.62608 50 6.0995V44.9884C50 46.4618 49.4147 47.8749 48.3728 48.9168C47.3309 49.9586 45.9179 50.5439 44.4444 50.5439H5.55556C4.08213 50.5439 2.66905 49.9586 1.62718 48.9168C0.585316 47.8749 0 46.4618 0 44.9884V6.0995C0 4.62608 0.585316 3.213 1.62718 2.17113C2.66905 1.12926 4.08213 0.543945 5.55556 0.543945H44.4444ZM43.0556 43.5995V28.8773C43.0556 26.4756 42.1015 24.1723 40.4032 22.474C38.705 20.7758 36.4017 19.8217 34 19.8217C31.6389 19.8217 28.8889 21.2662 27.5556 23.4328V20.3495H19.8056V43.5995H27.5556V29.9051C27.5556 27.7662 29.2778 26.0162 31.4167 26.0162C32.4481 26.0162 33.4372 26.4259 34.1665 27.1552C34.8958 27.8845 35.3056 28.8737 35.3056 29.9051V43.5995H43.0556ZM10.7778 15.9884C12.0155 15.9884 13.2024 15.4967 14.0776 14.6216C14.9528 13.7464 15.4444 12.5594 15.4444 11.3217C15.4444 8.73839 13.3611 6.62728 10.7778 6.62728C9.53273 6.62728 8.33868 7.12187 7.4583 8.00225C6.57792 8.88263 6.08333 10.0767 6.08333 11.3217C6.08333 13.9051 8.19444 15.9884 10.7778 15.9884ZM14.6389 43.5995V20.3495H6.94444V43.5995H14.6389Z" fill="#FFF9FD"/>
</svg>
