<svg width="44" height="62" viewBox="0 0 44 62" fill="none" xmlns="http://www.w3.org/2000/svg">
<g id="Group">
<path id="Vector" d="M42 21.7661C42 32.8328 22 59.5439 22 59.5439C22 59.5439 2 32.8328 2 21.7661C2 16.4618 4.10714 11.3747 7.85786 7.62398C11.6086 3.87325 16.6957 1.76611 22 1.76611C27.3043 1.76611 32.3914 3.87325 36.1421 7.62398C39.8929 11.3747 42 16.4618 42 21.7661Z" stroke="#555555" stroke-width="3" stroke-linecap="round" stroke-linejoin="round"/>
<path id="Vector_2" d="M22 28.4329C25.6819 28.4329 28.6667 25.4482 28.6667 21.7663C28.6667 18.0844 25.6819 15.0996 22 15.0996C18.3181 15.0996 15.3334 18.0844 15.3334 21.7663C15.3334 25.4482 18.3181 28.4329 22 28.4329Z" stroke="#555555" stroke-width="3" stroke-linecap="round" stroke-linejoin="round"/>
</g>
</svg>
