<svg width="33" height="36" viewBox="0 0 33 36" fill="none" xmlns="http://www.w3.org/2000/svg">
<path d="M5.81985 1.16631C1.32777 3.12026 -0.639057 8.72474 1.17024 13.755L1.16075 13.7775L1.25279 13.9776L1.83081 15.2345C3.76913 19.4492 5.23017 23.8675 6.1867 28.4069L7.10392 32.7598L7.10602 32.7698L7.10853 32.7796C7.48185 34.2514 8.80206 35.2838 10.3176 35.2838C11.9454 35.2838 13.3295 34.0968 13.5872 32.4866L14.8803 24.4073C14.9941 23.6967 15.6036 23.1771 16.3156 23.1771C17.0275 23.1771 17.6371 23.6967 17.7508 24.4073L19.0439 32.4866C19.3016 34.0968 20.6857 35.2838 22.3135 35.2838C23.829 35.2838 25.1492 34.2514 25.5226 32.7796L25.5251 32.7698L25.5272 32.7598L26.4444 28.4069C27.4009 23.8675 28.862 19.4492 30.8003 15.2345L31.3783 13.9776L31.4704 13.7773L31.4609 13.7547C33.2701 8.72457 31.3033 3.12023 26.8112 1.1663C24.6575 0.229462 22.3281 0.316236 20.2588 1.20278C17.9797 2.17921 14.6513 2.17921 12.3722 1.20277C10.303 0.31624 7.97359 0.229472 5.81985 1.16631ZM31.3912 13.9434L31.3914 13.9428L31.3912 13.9434Z" fill="url(#paint0_linear_30_294)" stroke="#44C6E9"/>
<defs>
<linearGradient id="paint0_linear_30_294" x1="5.05428" y1="1" x2="23.5228" y2="33.4324" gradientUnits="userSpaceOnUse">
<stop stop-color="#F0F6F9"/>
<stop offset="1" stop-color="#CDDFF2"/>
</linearGradient>
</defs>
</svg>
